<?xml version="1.0" encoding="UTF-8"?>
<svg width="16pt" height="16pt" version="1.1" viewBox="0 0 100 100" xmlns="http://www.w3.org/2000/svg">
 <path d="m76.27 18.121h-11.668v-3.1055c0-1.9688-0.76953-3.8203-2.1641-5.2188-1.3945-1.3945-3.25-2.1641-5.2188-2.1641h-14.438c-4.0703 0-7.3828 3.3125-7.3828 7.3828v3.1055h-11.668c-4.1758 0-7.5742 3.3984-7.5742 7.5742v6.5312c0 2.2852 1.7891 4.1602 4.043 4.3008l4.0977 48.723c0.33984 4.0586 3.668 7.1172 7.7422 7.1172h35.926c4.0703 0 7.3984-3.0586 7.7422-7.1172l4.0977-48.723c2.2539-0.13672 4.043-2.0117 4.043-4.3008v-6.5312c0-4.1758-3.3984-7.5742-7.5742-7.5742zm-34.961-3.1055c0-0.8125 0.66016-1.4727 1.4727-1.4727h14.438c0.52734 0 0.875 0.27344 1.0391 0.43359 0.16016 0.16016 0.43359 0.51172 0.43359 1.0391v3.1055h-17.379v-3.1055zm-19.242 10.68c0-0.90234 0.76172-1.6641 1.6641-1.6641h52.539c0.90234 0 1.6641 0.76172 1.6641 1.6641v4.9258l-55.867 0.003906zm47.746 59.059c-0.082031 0.96875-0.87891 1.6992-1.8516 1.6992h-35.926c-0.97266 0-1.7695-0.73047-1.8516-1.6992l-4.0547-48.219h47.734l-4.0547 48.219zm-28.855-8.7773c0.089844 1.6289-1.1602 3.0234-2.7891 3.1133-0.054688 0.003906-0.10938 0.003906-0.16406 0.003906-1.5586 0-2.8633-1.2188-2.9492-2.793l-1.6055-29.285c-0.089844-1.6289 1.1602-3.0234 2.7891-3.1133 1.625-0.089844 3.0234 1.1602 3.1133 2.7891zm11.996-29.125v29.285c0 1.6328-1.3242 2.957-2.957 2.957-1.6328 0-2.957-1.3242-2.957-2.957v-29.285c0-1.6328 1.3242-2.957 2.957-2.957 1.6328 0 2.957 1.3242 2.957 2.957zm13.594 0.16016-1.6055 29.285c-0.085937 1.5742-1.3906 2.793-2.9492 2.793-0.054688 0-0.10938-0.003906-0.16406-0.003906-1.6289-0.089844-2.8789-1.4844-2.7891-3.1133l1.6055-29.285c0.089844-1.6289 1.4805-2.8789 3.1133-2.7891 1.6289 0.089843 2.8789 1.4844 2.7891 3.1133z" fill="#fff"/>
</svg>
