<?xml version="1.0" encoding="UTF-8"?>
<svg width="21pt" height="21pt" version="1.1" viewBox="0 0 1200 1200" xmlns="http://www.w3.org/2000/svg">
 <path d="m830.4 825.6c-8.3984-12-26.398-14.398-37.199-3.6016l-28.801 27.602c-10.801 10.801-27.602 8.3984-37.199-2.3984l-91.199-123.6c-10.801-14.398-31.199-13.199-40.801 1.1992l-157.2 250.8c-10.801 16.801 1.1992 38.398 20.398 38.398h458.4c20.398 0 32.398-22.801 20.398-39.602z"/>
 <path d="m918 682.8c0 35.125-28.477 63.598-63.602 63.598s-63.598-28.473-63.598-63.598 28.473-63.602 63.598-63.602 63.602 28.477 63.602 63.602"/>
 <path d="m1106.4 463.2-241.2-242.4c-7.1992-7.1992-16.801-10.801-26.398-10.801l-223.2-1.1992c-38.398-104.4-139.2-180-258-180-151.2 1.1992-274.8 124.8-274.8 276 0 117.6 74.398 218.4 178.8 256.8v520.8c0 48 38.398 86.398 86.398 86.398h682.8c48 0 86.398-38.398 86.398-86.398v-594c0-9.5977-3.5977-19.199-10.801-25.199zm-230.4-126 115.2 115.2h-115.2zm-718.8-32.398c0-110.4 90-201.6 201.6-201.6 111.6 0 201.6 90 201.6 201.6 0 111.6-90 201.6-201.6 201.6-111.6-0.003906-201.6-90.004-201.6-201.6zm873.6 790.8h-682.8c-7.1992 0-12-6-12-12v-504c7.1992 1.1992 14.398 1.1992 22.801 1.1992 151.2 0 274.8-123.6 274.8-274.8 0-7.1992 0-14.398-1.1992-21.602h169.2v204c0 20.398 16.801 37.199 37.199 37.199h204v556.8c0 7.2031-6 13.203-12 13.203z"/>
 <path d="m394.8 404.4v-109.2l8.3984 7.1992c7.1992 7.1992 16.801 9.6016 25.199 9.6016 9.6016 0 20.398-3.6016 27.602-12 14.398-14.398 13.199-38.398-2.3984-52.801l-70.801-66c-14.398-13.199-36-13.199-50.398 0l-69.602 66c-14.398 14.398-15.602 37.199-1.1992 52.801 14.398 14.398 37.199 15.602 52.801 1.1992l8.3984-7.1992v109.2c0 20.398 16.801 37.199 37.199 37.199s34.801-15.598 34.801-36z"/>
</svg>
