<?xml version="1.0" encoding="UTF-8"?>
<svg width="18pt" height="18pt" version="1.1" viewBox="0 0 100 100" xmlns="http://www.w3.org/2000/svg">
 <path d="m22.727 38.156c4.7812 0 9.3711-1.9023 12.75-5.2852 3.3828-3.3828 5.2852-7.9688 5.2852-12.754 0-4.7812-1.9023-9.3711-5.2852-12.75-3.3828-3.3828-7.9688-5.2852-12.754-5.2852-4.7812 0-9.3711 1.9023-12.75 5.2812-3.3828 3.3828-5.2852 7.9727-5.2852 12.754 0 4.7852 1.8984 9.3711 5.2812 12.754 3.3828 3.3828 7.9727 5.2852 12.758 5.2852zm0-27.547 9.2617 9.2617-2.6562 2.6562-4.7305-4.7266v11.828h-3.7539v-11.828l-4.7266 4.7266-2.6562-2.6562z"/>
 <path d="m87.523 10.965h-42.781c2.6172 6.2891 2.418 13.395-0.54297 19.527-2.9609 6.1289-8.4023 10.703-14.953 12.562-6.5508 1.8633-13.582 0.83203-19.324-2.8242v49.898c0 4.3008 3.4883 7.7891 7.7891 7.7891h69.812c2.0664 0 4.0469-0.82031 5.5078-2.2812 1.4609-1.4609 2.2812-3.4414 2.2812-5.5078v-71.375c0-2.0625-0.82031-4.0469-2.2812-5.5078-1.4609-1.4609-3.4414-2.2812-5.5078-2.2812zm-16.883 13.746c4.4219 0 8.4062 2.6641 10.098 6.7461 1.6914 4.0859 0.75781 8.7852-2.3711 11.91-3.125 3.125-7.8242 4.0625-11.906 2.3711-4.0859-1.6914-6.7461-5.6797-6.7461-10.098-0.003906-2.8984 1.1484-5.6797 3.1992-7.7266 2.0508-2.0508 4.8281-3.2031 7.7266-3.2031zm12.617 59.461h-61.277c-0.40234 0-0.77344-0.21094-0.97656-0.55469-0.20312-0.34766-0.20703-0.77344-0.015625-1.125l18.855-34.207c0.25-0.45312 0.71875-0.74219 1.2344-0.76172 0.51953-0.023438 1.0078 0.23047 1.293 0.66016l10.59 16c1.0156 1.5312 2.6719 2.5234 4.5 2.6914 1.832 0.16406 3.6406-0.50781 4.9141-1.832l2-2.0781h0.003906c0.69922-0.72656 1.6836-1.1094 2.6914-1.0508 1.0078 0.058594 1.9414 0.55469 2.5508 1.3555l14.531 19.086h0.003906c0.25781 0.34375 0.30078 0.80078 0.11328 1.1875-0.19141 0.38281-0.58203 0.62891-1.0117 0.62891z"/>
</svg>
