<?xml version="1.0" encoding="UTF-8"?>
<svg width="20pt" height="20pt" version="1.1" viewBox="0 0 100 100" xmlns="http://www.w3.org/2000/svg">
 <path d="m97.5 50c0 26.199-21.301 47.5-47.5 47.5s-47.5-21.301-47.5-47.5 21.301-47.5 47.5-47.5 47.5 21.301 47.5 47.5zm-47.5-40c-22.102 0-40 17.898-40 40s17.898 40 40 40 40-17.898 40-40-17.898-40-40-40zm5 64.602v-30c0-2.8008-2.1992-5-5-5s-5 2.1992-5 5v30c0 2.8008 2.1992 5 5 5s5-2.2031 5-5zm-5-54.203c-3.8984 0-7 3.1016-7 7 0 3.8984 3.1016 7 7 7s7-3.1016 7-7c0-3.8984-3.1016-7-7-7z"/>
</svg>
