<?xml version="1.0" encoding="UTF-8"?>
<svg width="18pt" height="18pt" version="1.1" viewBox="0 0 100 100" xmlns="http://www.w3.org/2000/svg">
 <path d="m50.5 30c-7.7891 0-14.125 6.3359-14.125 14.125s6.3359 14.125 14.125 14.125 14.125-6.3359 14.125-14.125-6.3359-14.125-14.125-14.125zm0 21.004c-3.793 0-6.8828-3.0859-6.8828-6.8828 0-3.793 3.0859-6.8828 6.8828-6.8828 3.793 0 6.8828 3.0859 6.8828 6.8828s-3.0898 6.8828-6.8828 6.8828z" fill="#fff"/>
 <path d="m89.332 41.973c-0.60547-11.023-5.9375-21.34-14.625-28.297-6.7812-5.4336-15.379-8.4258-24.207-8.4258s-17.426 2.9922-24.207 8.4258c-8.6875 6.957-14.016 17.273-14.625 28.297-0.60938 11.035 3.5234 21.84 11.332 29.648l20.719 20.719c1.7734 1.7734 4.1367 2.7539 6.6445 2.7539 2.4883 0 4.832-0.96094 6.6055-2.7109l21.031-20.762c7.8086-7.8086 11.938-18.613 11.332-29.648zm-16.438 24.512-21.016 20.742c-0.81641 0.80469-2.2266 0.80078-3.0391-0.007812l-20.719-20.719c-6.3555-6.3555-9.7148-15.148-9.2227-24.129 0.5-9.1016 4.7344-17.285 11.922-23.043 5.5-4.4062 12.492-6.8359 19.68-6.8359s14.176 2.4297 19.68 6.8359c7.1875 5.7578 11.418 13.941 11.922 23.043 0.49219 8.9805-2.8672 17.773-9.207 24.113z" fill="#fff"/>
</svg>
